<?xml version="1.0" encoding="UTF-8"?><svg id="Layer_1" xmlns="http://www.w3.org/2000/svg" viewBox="0 0 287.027 171.805"><defs><style>.cls-1{fill:#fff;}.cls-1,.cls-2,.cls-3,.cls-4{stroke-width:0px;}.cls-2{fill-opacity:0;}.cls-2,.cls-4{fill-rule:evenodd;}.cls-3,.cls-4{fill:#e56762;}</style></defs><path class="cls-4" d="m6.001,6.001v159.803h275.025V6.001H6.001ZM0,0h287.027v171.805H0V0Z"/><polygon class="cls-2" points="46.827 34.492 42.561 45.185 51.039 45.185 46.827 34.492"/><polygon class="cls-2" points="61.147 84.046 66.643 84.046 63.912 77.115 61.147 84.046"/><polygon class="cls-2" points="209.582 140.892 214.412 140.892 212.013 134.801 209.582 140.892"/><polygon class="cls-2" points="119.387 84.046 124.883 84.046 122.152 77.115 119.387 84.046"/><path class="cls-2" d="m146.486,108.606c-.585,0-1.15.41-1.697,1.229-.547.819-.82,1.95-.82,3.393,0,.876.168,1.568.506,2.073.247.371.578.556.99.556.578,0,1.104-.351,1.578-1.051.605-.91.908-2.04.908-3.388,0-1.012-.139-1.733-.418-2.164-.279-.432-.627-.648-1.047-.648Z"/><polygon class="cls-2" points="73.909 140.892 78.738 140.892 76.339 134.801 73.909 140.892"/><path class="cls-2" d="m38.818,75.085h-4.48v5.916h4.516c2.275,0,3.64-1.12,3.64-2.905v-.07c0-1.96-1.435-2.94-3.675-2.94Z"/><path class="cls-2" d="m6.001,6.001v159.803h275.025V6.001H6.001Zm217.86,63.238h7.176l5.845,9.486,5.846-9.486h7.176v24.503h-6.756v-14.071l-6.266,9.591h-.14l-6.231-9.557v14.037h-6.65v-24.503Zm-15.683-46.897h10.476v37.801h-10.476V22.342Zm2.84,46.723l10.431,24.678h-7.281l-1.75-4.41h-9.486l-1.75,4.41h-7.105l10.396-24.678h6.546Zm-22.784,24.853h-5.916l-4.901-14.106-4.936,14.106h-5.916l-8.191-24.678h7.176l4.271,14.177,4.726-14.247h5.846l4.726,14.247,4.27-14.177h7.036l-8.191,24.678Zm-32.166-71.575l6.588,21.87,7.29-21.979h9.018l7.291,21.979,6.588-21.87h10.854l-12.636,38.07h-9.126l-7.56-21.762-7.614,21.762h-9.126l-12.636-38.07h11.07Zm-8.436,71.82c-4.341,0-8.436-1.365-11.481-4.061l3.78-4.516c2.451,1.926,5.111,2.94,7.946,2.94,1.855,0,2.835-.63,2.835-1.68v-.07c0-1.05-.805-1.575-4.166-2.38-5.215-1.19-9.241-2.66-9.241-7.666v-.07c0-4.551,3.605-7.841,9.486-7.841,4.166,0,7.421,1.12,10.081,3.255l-3.396,4.796c-2.24-1.61-4.69-2.415-6.86-2.415-1.646,0-2.45.665-2.45,1.575v.07c0,1.12.84,1.609,4.271,2.38,5.601,1.225,9.101,3.046,9.101,7.631v.07c0,5.005-3.955,7.98-9.906,7.98Zm2.082,16.669c0,1.498-.536,2.841-1.609,4.031s-2.207,1.785-3.404,1.785c-.736,0-1.329-.236-1.779-.708-.451-.472-.676-1.116-.676-1.932,0-1.416.412-2.724,1.238-3.924,1.038-1.49,2.331-2.235,3.879-2.235.674,0,1.234.263,1.682.789.447.526.67,1.257.67,2.194ZM106.389,22.342h10.476v14.148h13.446v-14.148h10.476v37.801h-10.476v-14.364h-13.446v14.364h-10.476V22.342Zm-13.287,66.92h-.14l-6.231-9.557v14.037h-6.65v-24.503h7.176l5.845,9.486,5.846-9.486h7.176v24.503h-6.756v-14.071l-6.266,9.591Zm-8.745-43.538c-8.046-1.836-14.256-4.104-14.256-11.826v-.107c0-7.021,5.562-12.097,14.634-12.097,6.426,0,11.448,1.729,15.552,5.022l-5.238,7.398c-3.456-2.484-7.236-3.727-10.584-3.727-2.538,0-3.78,1.026-3.78,2.431v.107c0,1.729,1.296,2.484,6.588,3.672,8.64,1.891,14.04,4.698,14.04,11.772v.108c0,7.722-6.102,12.312-15.282,12.312-6.696,0-13.014-2.105-17.712-6.264l5.832-6.966c3.78,2.97,7.884,4.536,12.258,4.536,2.862,0,4.374-.973,4.374-2.593v-.107c0-1.62-1.242-2.431-6.426-3.673Zm-6.689,48.019h-7.281l-1.75-4.41h-9.486l-1.75,4.41h-7.105l10.396-24.678h6.546l10.431,24.678ZM41.86,22.071h10.098l16.092,38.071h-11.232l-2.7-6.805h-14.634l-2.7,6.805h-10.962l16.039-38.071Zm8.229,71.671h-7.806l-4.936-7.421h-3.01v7.421h-6.791v-24.503h11.586c3.746,0,6.336.98,7.981,2.625,1.435,1.436,2.17,3.291,2.17,5.706v.07c0,3.78-1.996,6.266-5.041,7.561l5.845,8.541Zm-3.745,49.027c0,4.399-3.476,7.014-8.706,7.014-3.815,0-7.414-1.2-10.09-3.569l3.322-3.968c2.154,1.691,4.492,2.584,6.984,2.584,1.63,0,2.492-.554,2.492-1.477v-.061c0-.923-.708-1.384-3.661-2.092-4.584-1.046-8.122-2.338-8.122-6.737v-.062c0-3.999,3.169-6.891,8.337-6.891,3.661,0,6.522.984,8.86,2.861l-2.984,4.215c-1.969-1.416-4.123-2.123-6.03-2.123-1.446,0-2.154.585-2.154,1.384v.062c0,.984.739,1.415,3.753,2.092,4.922,1.077,7.999,2.676,7.999,6.706v.062Zm13.445,6.645h-5.968v-16.305h-6.43v-5.23h18.859v5.23h-6.461v16.305Zm22.242,0l-1.538-3.877h-8.337l-1.538,3.877h-6.245l9.137-21.689h5.753l9.167,21.689h-6.399Zm23.443-16.305h-6.461v16.305h-5.968v-16.305h-6.43v-5.23h18.858v5.23Zm20.058,16.305h-17.474v-21.535h17.32v5.045h-11.413v3.292h10.337v4.707h-10.337v3.414h11.568v5.076Zm.796-36.992H27.547v-2h98.781v2Zm.55-23.09h-9.486l-1.75,4.41h-7.105l10.396-24.678h6.546l10.431,24.678h-7.281l-1.75-4.41Zm4.15,32.072c-.223-.165-.335-.369-.335-.612,0-.209.077-.375.232-.5.155-.125.376-.187.666-.187.145,0,.358.016.64.05.481.061.942.092,1.382.092.68,0,1.176-.157,1.485-.471.31-.314.619-1.08.928-2.301l2.094-8.252h-2.466l.186-.718h2.466c.406-1.686.87-2.94,1.393-3.763.523-.822,1.203-1.471,2.042-1.946.839-.476,1.63-.714,2.373-.714.419,0,.736.081.949.243.213.163.32.354.32.577,0,.202-.073.37-.217.505-.144.136-.334.203-.568.203-.241,0-.696-.071-1.363-.212-.331-.068-.589-.102-.775-.102-.455,0-.865.275-1.23.825-.365.549-.658,1.293-.878,2.23l-.518,2.154h2.733l-.165.718h-2.769l-1.615,6.452c-.502,1.963-1.305,3.449-2.408,4.46-1.104,1.012-2.302,1.517-3.595,1.517-.433,0-.761-.082-.985-.248Zm23.208,21.364c0,4.399-3.476,7.014-8.706,7.014-3.815,0-7.414-1.2-10.09-3.569l3.322-3.968c2.154,1.691,4.492,2.584,6.984,2.584,1.63,0,2.492-.554,2.492-1.477v-.061c0-.923-.708-1.384-3.661-2.092-4.584-1.046-8.122-2.338-8.122-6.737v-.062c0-3.999,3.169-6.891,8.337-6.891,3.661,0,6.522.984,8.86,2.861l-2.984,4.215c-1.969-1.416-4.123-2.123-6.03-2.123-1.446,0-2.154.585-2.154,1.384v.062c0,.984.739,1.415,3.753,2.092,4.922,1.077,7.999,2.676,7.999,6.706v.062Zm1.377-33.243c-.32.237-.67.598-1.052,1.083-.381.486-.648.908-.8,1.269-.151.36-.382,1.198-.692,2.513l-.465,1.962h-1.537l.722-2.721c.351-1.335.657-2.602.919-3.803.062-.296.093-.482.093-.556,0-.161-.076-.243-.227-.243-.103,0-.262.07-.475.208-.213.138-.598.48-1.155,1.027l-.32-.354c.66-.694,1.318-1.216,1.974-1.562.657-.348,1.16-.521,1.511-.521.124,0,.222.029.294.086.073.058.109.13.109.217,0,.088-.045.322-.136.701l-.449,1.82c.696-1.076,1.482-1.996,2.357-2.762.42-.365.771-.548,1.054-.548.207,0,.379.066.517.198s.207.285.207.46c0,.182-.067.337-.201.466-.134.128-.469.28-1.005.455-.509.169-.923.371-1.242.607Zm18.928,39.887h-17.474v-21.535h17.32v5.045h-11.413v3.292h10.337v4.707h-10.337v3.414h11.568v5.076Zm23.412,0h-5.199l-9.229-11.813v11.813h-5.907v-21.535h5.568l8.86,11.383v-11.383h5.907v21.535Zm19.751,0l-1.538-3.877h-8.337l-1.538,3.877h-6.245l9.137-21.689h5.753l9.167,21.689h-6.399Zm23.443-16.305h-6.461v16.305h-5.968v-16.305h-6.429v-5.23h18.858v5.23Zm20.059,16.305h-17.474v-21.535h17.32v5.045h-11.413v3.292h10.337v4.707h-10.337v3.414h11.568v5.076Zm0-36.992h-98.781v-2h98.781v2Zm0-18.68h-6.791v-24.503h6.791v24.503Zm0-33.6h-9.126l-16.2-20.736v20.736h-10.368V22.342h9.774l15.552,19.98v-19.98h10.368v37.801Z"/><polygon class="cls-2" points="207.692 77.115 204.927 84.046 210.422 84.046 207.692 77.115"/><path class="cls-1" d="m41.86,22.071h10.098l16.092,38.071h-11.232l-2.7-6.805h-14.634l-2.7,6.805h-10.962l16.039-38.071Zm9.18,23.113l-4.212-10.692-4.266,10.692h8.478Z"/><path class="cls-1" d="m68.319,54.526l5.832-6.966c3.78,2.97,7.884,4.536,12.258,4.536,2.862,0,4.374-.973,4.374-2.593v-.107c0-1.62-1.242-2.431-6.426-3.673-8.046-1.836-14.256-4.104-14.256-11.826v-.107c0-7.021,5.562-12.097,14.634-12.097,6.426,0,11.448,1.729,15.552,5.022l-5.238,7.398c-3.456-2.484-7.236-3.727-10.584-3.727-2.538,0-3.78,1.026-3.78,2.431v.107c0,1.729,1.296,2.484,6.588,3.672,8.64,1.891,14.04,4.698,14.04,11.772v.108c0,7.722-6.102,12.312-15.282,12.312-6.696,0-13.014-2.105-17.712-6.264Z"/><path class="cls-1" d="m106.389,22.342h10.476v14.148h13.446v-14.148h10.476v37.801h-10.476v-14.364h-13.446v14.364h-10.476V22.342Z"/><path class="cls-1" d="m144.998,22.342h11.07l6.588,21.87,7.29-21.979h9.018l7.291,21.979,6.588-21.87h10.854l-12.636,38.07h-9.126l-7.56-21.762-7.614,21.762h-9.126l-12.636-38.07Z"/><path class="cls-1" d="m208.178,22.342h10.476v37.801h-10.476V22.342Z"/><path class="cls-1" d="m225.512,22.342h9.774l15.552,19.98v-19.98h10.368v37.801h-9.126l-16.2-20.736v20.736h-10.368V22.342Z"/><path class="cls-1" d="m27.547,69.239h11.586c3.746,0,6.336.98,7.981,2.625,1.435,1.436,2.17,3.291,2.17,5.706v.07c0,3.78-1.996,6.266-5.041,7.561l5.845,8.541h-7.806l-4.936-7.421h-3.01v7.421h-6.791v-24.503Zm11.306,11.762c2.275,0,3.64-1.12,3.64-2.905v-.07c0-1.96-1.435-2.94-3.675-2.94h-4.48v5.916h4.516Z"/><path class="cls-1" d="m60.692,69.065h6.546l10.431,24.678h-7.281l-1.75-4.41h-9.486l-1.75,4.41h-7.105l10.396-24.678Zm5.951,14.981l-2.73-6.931-2.765,6.931h5.496Z"/><path class="cls-1" d="m80.081,69.239h7.176l5.845,9.486,5.846-9.486h7.176v24.503h-6.756v-14.071l-6.266,9.591h-.14l-6.231-9.557v14.037h-6.65v-24.503Z"/><path class="cls-1" d="m118.932,69.065h6.546l10.431,24.678h-7.281l-1.75-4.41h-9.486l-1.75,4.41h-7.105l10.396-24.678Zm5.951,14.981l-2.73-6.931-2.765,6.931h5.496Z"/><path class="cls-1" d="m136.151,90.102l3.78-4.516c2.451,1.926,5.111,2.94,7.946,2.94,1.855,0,2.835-.63,2.835-1.68v-.07c0-1.05-.805-1.575-4.166-2.38-5.215-1.19-9.241-2.66-9.241-7.666v-.07c0-4.551,3.605-7.841,9.486-7.841,4.166,0,7.421,1.12,10.081,3.255l-3.396,4.796c-2.24-1.61-4.69-2.415-6.86-2.415-1.646,0-2.45.665-2.45,1.575v.07c0,1.12.84,1.609,4.271,2.38,5.601,1.225,9.101,3.046,9.101,7.631v.07c0,5.005-3.955,7.98-9.906,7.98-4.341,0-8.436-1.365-11.481-4.061Z"/><path class="cls-1" d="m158.375,69.239h7.176l4.271,14.177,4.726-14.247h5.846l4.726,14.247,4.27-14.177h7.036l-8.191,24.678h-5.916l-4.901-14.106-4.936,14.106h-5.916l-8.191-24.678Z"/><path class="cls-1" d="m204.472,69.065h6.546l10.431,24.678h-7.281l-1.75-4.41h-9.486l-1.75,4.41h-7.105l10.396-24.678Zm5.951,14.981l-2.73-6.931-2.765,6.931h5.496Z"/><path class="cls-1" d="m223.861,69.239h7.176l5.845,9.486,5.846-9.486h7.176v24.503h-6.756v-14.071l-6.266,9.591h-.14l-6.231-9.557v14.037h-6.65v-24.503Z"/><path class="cls-1" d="m254.415,69.239h6.791v24.503h-6.791v-24.503Z"/><path class="cls-3" d="m135.84,108.505h2.466c.406-1.686.87-2.94,1.393-3.763.523-.822,1.203-1.471,2.042-1.946.839-.476,1.63-.714,2.373-.714.419,0,.736.081.949.243.213.163.32.354.32.577,0,.202-.073.37-.217.505-.145.136-.334.203-.568.203-.241,0-.696-.071-1.363-.212-.331-.068-.589-.102-.775-.102-.455,0-.865.275-1.23.825-.365.549-.658,1.293-.878,2.23l-.518,2.154h2.733l-.165.718h-2.769l-1.615,6.452c-.502,1.963-1.305,3.449-2.408,4.46-1.104,1.012-2.302,1.517-3.595,1.517-.433,0-.761-.082-.985-.248-.223-.165-.335-.369-.335-.612,0-.209.077-.375.232-.5.155-.125.376-.187.665-.187.145,0,.358.016.64.05.481.061.942.092,1.382.092.68,0,1.176-.157,1.485-.471s.619-1.08.928-2.301l2.094-8.252h-2.466l.186-.718Z"/><path class="cls-3" d="m147.363,107.848c.674,0,1.234.263,1.682.789.447.526.67,1.257.67,2.194,0,1.498-.536,2.841-1.609,4.031s-2.207,1.785-3.404,1.785c-.736,0-1.329-.236-1.779-.708s-.676-1.116-.676-1.932c0-1.416.412-2.724,1.238-3.924,1.038-1.49,2.331-2.235,3.879-2.235Zm-.877.758c-.585,0-1.15.41-1.697,1.229-.547.819-.82,1.95-.82,3.393,0,.876.168,1.568.506,2.073.247.371.578.556.99.556.578,0,1.104-.351,1.578-1.051.605-.91.908-2.04.908-3.388,0-1.012-.139-1.733-.418-2.164-.279-.432-.627-.648-1.047-.648Z"/><path class="cls-3" d="m152.603,116.353h-1.537l.722-2.721c.351-1.335.657-2.602.919-3.803.062-.296.093-.482.093-.556,0-.161-.076-.243-.227-.243-.103,0-.262.07-.475.208-.213.138-.598.48-1.155,1.027l-.32-.354c.66-.694,1.318-1.216,1.974-1.562.657-.348,1.16-.521,1.511-.521.124,0,.222.029.294.086.073.058.109.13.109.217,0,.088-.045.322-.136.701l-.449,1.82c.696-1.076,1.482-1.996,2.357-2.762.42-.365.771-.548,1.054-.548.207,0,.379.066.517.197s.207.285.207.46c0,.182-.067.337-.201.466-.134.128-.469.28-1.005.455-.509.169-.923.371-1.242.607-.32.237-.67.598-1.052,1.083-.381.485-.648.908-.8,1.269-.151.36-.382,1.198-.692,2.513l-.465,1.962Z"/><rect class="cls-3" x="27.547" y="110.422" width="98.781" height="2"/><rect class="cls-3" x="162.425" y="110.422" width="98.781" height="2"/><path class="cls-1" d="m27.547,146.214l3.322-3.968c2.154,1.691,4.492,2.584,6.984,2.584,1.63,0,2.492-.554,2.492-1.477v-.061c0-.923-.708-1.384-3.661-2.092-4.584-1.046-8.122-2.338-8.122-6.737v-.062c0-3.999,3.169-6.891,8.337-6.891,3.661,0,6.522.984,8.86,2.861l-2.984,4.215c-1.969-1.416-4.123-2.123-6.03-2.123-1.446,0-2.154.585-2.154,1.384v.062c0,.984.739,1.415,3.753,2.092,4.922,1.077,7.999,2.676,7.999,6.706v.062c0,4.399-3.476,7.014-8.706,7.014-3.815,0-7.414-1.2-10.09-3.569Z"/><path class="cls-1" d="m53.82,133.109h-6.43v-5.23h18.859v5.23h-6.461v16.305h-5.968v-16.305Z"/><path class="cls-1" d="m73.509,127.725h5.753l9.167,21.689h-6.399l-1.538-3.877h-8.337l-1.538,3.877h-6.245l9.137-21.689Zm5.23,13.167l-2.4-6.091-2.43,6.091h4.83Z"/><path class="cls-1" d="m93.045,133.109h-6.429v-5.23h18.858v5.23h-6.461v16.305h-5.968v-16.305Z"/><path class="cls-1" d="m108.058,127.879h17.32v5.045h-11.413v3.292h10.337v4.707h-10.337v3.414h11.568v5.076h-17.474v-21.535Z"/><path class="cls-1" d="m135.439,146.214l3.322-3.968c2.154,1.691,4.492,2.584,6.984,2.584,1.63,0,2.492-.554,2.492-1.477v-.061c0-.923-.708-1.384-3.661-2.092-4.584-1.046-8.122-2.338-8.122-6.737v-.062c0-3.999,3.169-6.891,8.337-6.891,3.661,0,6.522.984,8.86,2.861l-2.984,4.215c-1.969-1.416-4.123-2.123-6.03-2.123-1.446,0-2.154.585-2.154,1.384v.062c0,.984.739,1.415,3.753,2.092,4.922,1.077,7.999,2.676,7.999,6.706v.062c0,4.399-3.476,7.014-8.706,7.014-3.815,0-7.414-1.2-10.09-3.569Z"/><path class="cls-1" d="m157.067,127.879h17.32v5.045h-11.413v3.292h10.337v4.707h-10.337v3.414h11.568v5.076h-17.474v-21.535Z"/><path class="cls-1" d="m177.618,127.879h5.568l8.86,11.383v-11.383h5.907v21.535h-5.199l-9.229-11.813v11.813h-5.907v-21.535Z"/><path class="cls-1" d="m209.182,127.725h5.753l9.167,21.689h-6.399l-1.538-3.877h-8.337l-1.538,3.877h-6.245l9.137-21.689Zm5.23,13.167l-2.4-6.091-2.43,6.091h4.83Z"/><path class="cls-1" d="m228.719,133.109h-6.429v-5.23h18.858v5.23h-6.461v16.305h-5.968v-16.305Z"/><path class="cls-1" d="m243.732,127.879h17.32v5.045h-11.413v3.292h10.337v4.707h-10.337v3.414h11.568v5.076h-17.474v-21.535Z"/></svg>